<svg width="16" height="16" viewBox="0 0 16 16" fill="none" xmlns="http://www.w3.org/2000/svg">
<path fill-rule="evenodd" clip-rule="evenodd" d="M2 0C0.895431 0 0 0.895431 0 2V14C0 15.1046 0.895431 16 2 16H14C15.1046 16 16 15.1046 16 14V2C16 0.895431 15.1046 0 14 0H2ZM7.79856 3H4V13H8.17266C8.6235 13 9.07434 12.9529 9.52518 12.8588C9.98561 12.7646 10.3981 12.6092 10.7626 12.3927C11.1271 12.1761 11.4245 11.8936 11.6547 11.5452C11.8849 11.1874 12 10.7448 12 10.2175C12 9.89736 11.9472 9.59604 11.8417 9.31356C11.7362 9.03107 11.5827 8.78625 11.3813 8.5791C11.1894 8.36252 10.9544 8.18832 10.6763 8.0565C10.4077 7.91525 10.1055 7.82109 9.76978 7.77401V7.74576C10.2974 7.58569 10.7194 7.32203 11.036 6.9548C11.3621 6.57815 11.5252 6.10734 11.5252 5.54237C11.5252 4.99623 11.4149 4.55838 11.1942 4.22881C10.9736 3.89925 10.6859 3.64501 10.3309 3.4661C9.97602 3.27778 9.57314 3.15537 9.1223 3.09887C8.68106 3.03296 8.23981 3 7.79856 3ZM7.8705 6.99717H6.2446V4.86441H7.76978C7.94245 4.86441 8.1199 4.88324 8.30216 4.9209C8.48441 4.94915 8.64748 5.00094 8.79137 5.07627C8.93525 5.1516 9.05036 5.25989 9.13669 5.40113C9.23261 5.53296 9.28058 5.70245 9.28058 5.9096C9.28058 6.10734 9.23741 6.27684 9.15108 6.41808C9.07434 6.55932 8.96883 6.67232 8.83453 6.75706C8.70024 6.84181 8.54676 6.90301 8.3741 6.94068C8.21103 6.97834 8.04317 6.99717 7.8705 6.99717ZM8.25899 11.1356H6.2446V8.86158H7.94245C8.1247 8.86158 8.32134 8.87571 8.53237 8.90395C8.74341 8.9322 8.94005 8.98399 9.1223 9.05932C9.30456 9.13465 9.45324 9.24765 9.56835 9.3983C9.69305 9.53955 9.7554 9.72787 9.7554 9.96328C9.7554 10.1798 9.70743 10.3635 9.61151 10.5141C9.52518 10.6648 9.41007 10.7872 9.26619 10.8814C9.1223 10.9755 8.95923 11.0414 8.77698 11.0791C8.60432 11.1168 8.43165 11.1356 8.25899 11.1356Z" fill="#E1DDD1"/>
</svg>
