<?xml version="1.0" encoding="UTF-8"?>
<svg width="327px" height="75px" viewBox="0 0 327 75" version="1.1" xmlns="http://www.w3.org/2000/svg" xmlns:xlink="http://www.w3.org/1999/xlink">
    <!-- Generator: Sketch 51.2 (57519) - http://www.bohemiancoding.com/sketch -->
    <title>Group 4 Copy</title>
    <desc>Created with Sketch.</desc>
    <defs></defs>
    <g id="Page-1" stroke="none" stroke-width="1" fill="none" fill-rule="evenodd">
        <g id="Group-4-Copy" transform="translate(0.000000, -4.000000)">
            <g id="Group-2" fill-rule="nonzero">
                <path d="M52.4545455,10.9090909 C60.9898552,10.9090909 67.9090909,18.0205276 67.9090909,26.7929293 L67.9090909,62.2979798 C67.9090909,71.0703815 60.9898552,78.1818182 52.4545455,78.1818182 C43.9192357,78.1818182 37,71.0703815 37,62.2979798 L37,26.7929293 C37,18.0205276 43.9192357,10.9090909 52.4545455,10.9090909 Z" id="Rectangle-Copy-3" fill="#FFD800"></path>
                <path d="M34.2727273,-10.9090909 C42.808037,-10.9090909 49.7272727,-3.79765423 49.7272727,4.97474747 L49.7272727,40.479798 C49.7272727,49.2521997 42.808037,56.3636364 34.2727273,56.3636364 C25.7374175,56.3636364 18.8181818,49.2521997 18.8181818,40.479798 L18.8181818,4.97474747 C18.8181818,-3.79765423 25.7374175,-10.9090909 34.2727273,-10.9090909 Z" id="Rectangle-Copy-3" fill="#FFD800" transform="translate(34.272727, 22.727273) rotate(90.000000) translate(-34.272727, -22.727273) "></path>
                <rect id="Rectangle-Copy-10" fill="#000000" transform="translate(39.727273, 35.454545) rotate(45.000000) translate(-39.727273, -35.454545) " x="24.2727273" y="1.81818182" width="30.9090909" height="67.2727273" rx="15.4545455"></rect>
            </g>
            <g id="readbee" transform="translate(87.000000, 4.000000)">
                <path d="M19.9694414,18 C22.4014414,18 24.3774414,19.976 24.3774414,22.484 C24.3774414,24.916 22.4014414,26.892 19.9694414,26.892 C18.5254414,26.892 9.956,27.12 9.196,28.26 C8.968,28.64 8.892,29.096 8.892,29.096 L8.892,49.084 C8.892,51.516 6.916,53.492 4.408,53.492 C1.976,53.492 0,51.516 0,49.084 L0,22.484 C0,19.976 1.976,18 4.408,18 C5.548,18 6.536,18.38 7.296,19.064 C8.968,18.38 17.6134414,18 19.9694414,18 Z" fill="#000000"></path>
                <path d="M188.11751,53.492 C187.452647,53.492 186.954,53.492 186.621569,53.416 C181.55199,53.188 177.147275,51.212 174.155392,47.792 C171.412833,44.6 170,40.42 170,35.708 C170,25.904 177.645922,18 186.954,18 C191.608039,18 195.929647,19.748 199.087745,23.016 C202.245843,26.132 203.908,30.388 203.908,34.948 C203.908,37.38 201.747196,39.432 199.087745,39.432 L180.222265,39.432 C181.053343,41.864 182.881716,44.448 187.120216,44.6 L187.618863,44.6 C188.86548,44.6 191.1925,44.6 193.270196,43.232 C194.101275,42.776 195.015461,42.548 195.929647,42.548 C197.508696,42.548 199.087745,43.232 200.001931,44.524 C200.583686,45.208 200.83301,46.044 200.83301,46.88 C200.83301,48.324 200.001931,49.844 198.589098,50.68 C194.599922,53.112 190.444529,53.492 188.11751,53.492 Z M181.136451,30.54 L193.187088,30.54 C191.940471,28.26 189.696559,26.816 186.954,26.816 C184.62698,26.816 182.466176,28.336 181.136451,30.54 Z" id="e" fill="#FFD800"></path>
                <path d="M42.2049512,53.492 C41.5400885,53.492 41.0414414,53.492 40.70901,53.416 C35.6394316,53.188 31.2347159,51.212 28.2428336,47.792 C25.5002747,44.6 24.0874414,40.42 24.0874414,35.708 C24.0874414,25.904 31.733363,18 41.0414414,18 C45.6954806,18 50.0170885,19.748 53.1751865,23.016 C56.3332845,26.132 57.9954414,30.388 57.9954414,34.948 C57.9954414,37.38 55.8346375,39.432 53.1751865,39.432 L34.3097061,39.432 C35.1407845,41.864 36.9691571,44.448 41.2076571,44.6 L41.7063042,44.6 C42.9529218,44.6 45.2799414,44.6 47.3576375,43.232 C48.1887159,42.776 49.1029022,42.548 50.0170885,42.548 C51.5961375,42.548 53.1751865,43.232 54.0893728,44.524 C54.6711277,45.208 54.9204512,46.044 54.9204512,46.88 C54.9204512,48.324 54.0893728,49.844 52.6765394,50.68 C48.687363,53.112 44.5319708,53.492 42.2049512,53.492 Z M35.2238924,30.54 L47.2745296,30.54 C46.027912,28.26 43.7840002,26.816 41.0414414,26.816 C38.7144218,26.816 36.5536179,28.336 35.2238924,30.54 Z" id="e-copy-2" fill="#000000"></path>
                <path d="M224.11751,53.492 C223.452647,53.492 222.954,53.492 222.621569,53.416 C217.55199,53.188 213.147275,51.212 210.155392,47.792 C207.412833,44.6 206,40.42 206,35.708 C206,25.904 213.645922,18 222.954,18 C227.608039,18 231.929647,19.748 235.087745,23.016 C238.245843,26.132 239.908,30.388 239.908,34.948 C239.908,37.38 237.747196,39.432 235.087745,39.432 L216.222265,39.432 C217.053343,41.864 218.881716,44.448 223.120216,44.6 L223.618863,44.6 C224.86548,44.6 227.1925,44.6 229.270196,43.232 C230.101275,42.776 231.015461,42.548 231.929647,42.548 C233.508696,42.548 235.087745,43.232 236.001931,44.524 C236.583686,45.208 236.83301,46.044 236.83301,46.88 C236.83301,48.324 236.001931,49.844 234.589098,50.68 C230.599922,53.112 226.444529,53.492 224.11751,53.492 Z M217.136451,30.54 L229.187088,30.54 C227.940471,28.26 225.696559,26.816 222.954,26.816 C220.62698,26.816 218.466176,28.336 217.136451,30.54 Z" id="e-copy" fill="#FFD800"></path>
                <path d="M94,35.492 C94,25.688 101.98,17.708 111.708,17.708 C114.976,17.708 118.016,18.62 120.6,20.14 L120.6,4.408 C120.6,1.976 122.576,0 125.008,0 C127.516,0 129.492,1.976 129.492,4.408 L129.492,48.792 C129.492,51.224 127.516,53.2 125.008,53.2 C123.26,53.2 121.664,52.136 120.98,50.616 C118.32,52.212 115.128,53.2 111.708,53.2 C101.98,53.2 94,45.22 94,35.492 Z M102.892,35.492 C102.892,40.356 106.844,44.308 111.708,44.308 C116.648,44.308 120.6,40.356 120.6,35.492 C120.6,30.552 116.648,26.6 111.708,26.6 C106.844,26.6 102.892,30.552 102.892,35.492 Z" id="d" fill="#000000"></path>
                <path d="M133.202,35.492 C133.202,25.688 141.182,17.708 150.91,17.708 C154.178,17.708 157.218,18.62 159.802,20.14 L159.802,4.408 C159.802,1.976 161.778,0 164.21,0 C166.718,0 168.694,1.976 168.694,4.408 L168.694,48.792 C168.694,51.224 166.718,53.2 164.21,53.2 C162.462,53.2 160.866,52.136 160.182,50.616 C157.522,52.212 154.33,53.2 150.91,53.2 C141.182,53.2 133.202,45.22 133.202,35.492 Z M142.094,35.492 C142.094,40.356 146.046,44.308 150.91,44.308 C155.85,44.308 159.802,40.356 159.802,35.492 C159.802,30.552 155.85,26.6 150.91,26.6 C146.046,26.6 142.094,30.552 142.094,35.492 Z" id="d-copy" fill="#FFD800" transform="translate(150.948000, 26.600000) scale(-1, 1) translate(-150.948000, -26.600000) "></path>
                <path d="M90.932,44.144 L91.008,49.008 C91.008,51.364 89.032,53.416 86.6,53.416 C84.852,53.416 83.332,52.428 82.648,50.984 C81.052,51.82 79.304,52.428 77.404,52.808 C76.796,52.884 74.972,53.34 72.616,53.34 C66.156,53.34 61.672,50.072 60.304,44.296 C60.076,43.46 60,42.624 60,41.788 C60,39.66 60.684,37.608 61.976,35.936 C63.724,33.656 67.372,30.92 75.58,30.616 C76.72,30.616 77.784,30.54 78.924,30.54 C79.76,30.54 80.748,30.54 81.812,30.692 C81.584,29.476 81.052,28.184 80.292,27.728 C79.152,27.12 77.784,26.816 76.492,26.816 C73.604,26.816 70.716,28.108 69.12,29.4 C68.284,30.084 67.296,30.388 66.308,30.388 C65.016,30.388 63.8,29.856 62.888,28.792 C62.204,27.956 61.9,26.968 61.9,25.98 C61.9,24.688 62.432,23.396 63.496,22.56 C66.536,20.052 70.26,18.456 74.364,18.076 C75.048,18 75.656,18 76.34,18 C79.38,18 82.268,18.684 84.624,19.976 C90.704,23.396 90.932,31.376 90.932,32.212 L90.932,44.144 Z M81.128,40.496 L81.508,39.584 C80.976,39.508 80.14,39.432 78.924,39.432 C77.936,39.432 76.872,39.432 75.048,39.508 C71.552,39.66 69.576,40.572 69.044,41.256 C68.968,41.408 68.816,41.56 68.816,41.864 C68.816,41.94 68.892,42.092 68.892,42.244 C69.12,43.156 69.424,44.448 72.616,44.448 C73.984,44.448 75.124,44.22 75.504,44.144 C75.656,44.068 75.732,44.068 75.808,44.068 C78.62,43.536 80.368,41.864 81.128,40.496 Z" id="a" fill="#000000"></path>
            </g>
        </g>
    </g>
</svg>