<svg width="19" height="19" viewBox="0 0 19 19" fill="none" xmlns="http://www.w3.org/2000/svg">
<path d="M16.4609 0.707149C16.8514 0.316605 17.4847 0.316655 17.8752 0.707187C18.2656 1.09757 18.2658 1.73053 17.8756 2.12111L16.581 3.417V14.577C16.581 15.1074 16.3703 15.6161 15.9952 15.9912C15.6201 16.3663 15.1114 16.577 14.581 16.577H3.42L2.12101 17.876C1.73054 18.2665 1.09746 18.2665 0.70699 17.876C0.316527 17.4855 0.316518 16.8525 0.706969 16.462L16.4609 0.707149ZM9.001 10.997L10.002 11.998L11.002 10.998C11.3061 10.7547 11.689 10.6316 12.0779 10.6518C12.4668 10.6721 12.8348 10.8344 13.112 11.108L14.581 12.577V5.416L9.001 10.996V10.997ZM11.743 2.577H2.581V8.957L4.771 6.767L6.162 8.158L0.581 13.739V2.577C0.581 2.04657 0.791714 1.53786 1.16679 1.16279C1.54186 0.787714 2.05057 0.577 2.581 0.577H13.743L11.743 2.577Z" fill="#1D1F21"/>
</svg>
